<svg xmlns="http://www.w3.org/2000/svg" height="48" viewBox="0 96 960 960" width="48"><path d="M737 878q-20.5 0-34.75-13.75T688 829q0-21.5 14.25-35.25T737 780q22.5 0 35.75 13.75T786 829q0 21.5-13.25 35.25T737 878Zm-464.947 142Q251 1020 237 1006.75 223 993.5 223 972t13.75-35.25Q250.5 923 272 923q21.075 0 34.538 13.75Q320 950.5 320 972t-13.447 34.75q-13.448 13.25-34.5 13.25ZM240 878q-21.5 0-35.25-13.75T191 829q0-21.5 13.75-35.25T240 780h360q22.5 0 35.75 13.75T649 829q0 21.5-13.25 35.25T600 878H240Zm169 142q-21.5 0-35.25-13.25T360 972q0-21.5 13.75-35.25T409 923h280q22.075 0 35.037 13.75Q737 950.5 737 972t-12.963 34.75Q711.075 1020 689 1020H409ZM290 721q-92 0-158.5-66.5T65 496q0-84 58-149t144-74q35-57 90.5-90.5T479.962 149Q572 149 637 207q65 58 84 145 82 7 128.5 60T896 536q0 77-54.208 131Q787.583 721 710 721H290Z"/></svg>